<svg xmlns="http://www.w3.org/2000/svg" width="36" height="30" fill="none" viewBox="0 0 36 30"><path fill="#B3B3B3" d="m32.205 15 3.465-3.465q.33-.33.33-.801t-.33-.802L34.068 8.33q-.33-.33-.802-.33-.47 0-.801.33L29 11.795 25.535 8.33q-.33-.33-.801-.33t-.802.33L22.33 9.932q-.33.33-.33.802 0 .47.33.801L25.795 15l-3.465 3.465q-.33.33-.33.801t.33.802l1.602 1.602q.33.33.802.33.47 0 .801-.33L29 18.205l3.465 3.465q.33.33.801.33t.802-.33l1.602-1.602q.33-.33.33-.802 0-.47-.33-.801zM18.333 0q-.676 0-1.173.47L8.49 8.683H1.666q-.677 0-1.172.47Q0 9.622 0 10.263v9.472q0 .641.495 1.11t1.172.47H8.49l8.671 8.215q.494.47 1.173.469.678 0 1.172-.47.495-.467.495-1.11V1.58q0-.642-.494-1.11Q19.012 0 18.334 0z"/></svg>