<svg xmlns="http://www.w3.org/2000/svg" width="38" height="31" fill="none" viewBox="0 0 38 31"><path fill="#B3B3B3" d="M19.351 0a1.76 1.76 0 0 0-1.237.485L8.96 8.974h-7.2q-.715 0-1.237.485T0 10.606v9.788q0 .663.523 1.148a1.76 1.76 0 0 0 1.237.484h7.2l9.154 8.49q.522.483 1.237.484.715 0 1.237-.485.523-.484.523-1.147V1.632q0-.662-.521-1.147A1.76 1.76 0 0 0 19.352 0m10.246 19.132q1.11-1.675 1.111-3.622t-1.111-3.635q-1.11-1.69-2.942-2.38a1.5 1.5 0 0 0-.653-.129q-.68 0-1.177.473a1.55 1.55 0 0 0-.497 1.165q0 .538.314.908.314.371.758.64.444.268.889.589.444.32.758.908.313.59.313 1.46t-.313 1.458-.758.909-.889.589a3 3 0 0 0-.758.64 1.36 1.36 0 0 0-.314.908q0 .69.497 1.164.496.473 1.177.474.391 0 .653-.128 1.83-.717 2.942-2.394z"/><path fill="#B3B3B3" d="M35.756 22.858Q38 19.488 38 15.5q0-3.985-2.244-7.36-2.243-3.37-5.937-4.909a1.9 1.9 0 0 0-.686-.13q-.686 0-1.188.495-.501.494-.5 1.173 0 1.015 1.029 1.537 1.477.755 2.005 1.146a9.9 9.9 0 0 1 3.047 3.529 9.7 9.7 0 0 1 1.096 4.52 9.7 9.7 0 0 1-1.096 4.52 9.9 9.9 0 0 1-3.048 3.529q-.527.39-2.005 1.146-1.029.522-1.029 1.537 0 .677.501 1.173.5.495 1.213.495.317 0 .66-.13 3.694-1.538 5.937-4.91z"/></svg>