<svg xmlns="http://www.w3.org/2000/svg" width="49" height="26" fill="none" viewBox="0 0 49 26"><g clip-path="url(#a)"><path fill="#fff" d="M49 26H0L24.5 0zM13.308 13.13l3.336 3.54 3.337-3.54-3.337-3.549zm3.336 11.875 3.337-3.539-3.337-3.55-3.336 3.55zm15.764 0 3.337-3.539-3.337-3.55-3.389 3.55zm-3.94-19.602a.4.4 0 0 1-.08.094 269 269 0 0 1-3.152 3.351c-.092.094 0 .157 0 .241l3.074 3.267.144.136 3.337-3.529zM8.787 25.005l.132-.136 3.074-3.256a.2.2 0 0 0 .076-.152.2.2 0 0 0-.076-.152c-.933-.963-1.84-1.948-2.759-2.922l-.447-.47-3.336 3.549zm8.447-16.052 3.337 3.54.105-.095 3.14-3.33c.105-.115 0-.178 0-.262L20.743 5.56l-.131-.136zm0 8.377 3.337 3.54.17-.168c1-1.048 2.01-2.095 3.022-3.215a.2.2 0 0 0 .067-.074.2.2 0 0 0 .023-.088q0-.046-.023-.09a.2.2 0 0 0-.067-.073c-.945-.994-1.891-1.99-2.824-2.994l-.368-.377zm15.764 0 3.337 3.54 3.337-3.54-3.337-3.54zm-4.532-3.55v.073L25.3 17.215c-.105.094-.065.157 0 .24l2.943 3.142c.079.094.17.188.276.293l3.337-3.54zM12.73 20.848a.3.3 0 0 1 .065-.084l3.166-3.36c.092-.106 0-.158 0-.242l-3.113-3.267a.7.7 0 0 0-.145-.125L9.38 17.298zm19.626-4.188 3.337-3.54-3.337-3.528-3.337 3.539zm-7.882-8.377 3.337-3.54-3.285-3.466h-.065l-3.206 3.435a.14.14 0 0 0-.03.084q0 .045.03.084zm0 8.377 3.337-3.54L24.5 9.581l-3.337 3.55zm0 8.377 3.337-3.54-3.337-3.55-3.31 3.519zm15.764 0 3.337-3.54-3.324-3.518h-.066l-3.218 3.382c-.105.115 0 .168 0 .241l2.627 2.838zm-38.346.199h5.99l-2.969-3.142zm39.278 0h5.938l-2.969-3.142zm-17.616 0-2.982-3.142-2.982 3.142zm9.76 0h5.938l-2.968-3.142zm-1.917 0-2.97-3.142-2.968 3.142zm-15.764 0-2.97-3.142-2.968 3.142z"/></g><defs><clipPath id="a"><path fill="#fff" d="M0 0h49v26H0z"/></clipPath></defs></svg>