<svg xmlns="http://www.w3.org/2000/svg" width="85" height="41" fill="none" viewBox="0 0 85 41"><path fill="#9D8665" d="M0 41 42.5 0 85 41zm71.175-.617h12l-5.996-5.772zm-13.869 0h12L63.31 34.61zm-13.87 0h12l-6.001-5.772zm-13.896 0h12.05l-6.024-5.772zm-13.938 0h12l-5.995-5.772zm-13.79 0h12.1l-5.994-5.77zm34.357-6.357 6.28 6.16 6.334-6.107-6.33-6.122zm28.128-.386a.5.5 0 0 0-.093.648v.128l.09.049 4.64 4.553 1.364 1.151 6.319-6.091-6.186-5.953h-.363zm-42 .388 6.331 6.105 6.33-6.105-6.33-6.122zm27.736 0 6.429 6.103 6.33-6.103-6.33-6.12zm-41.606 0 6.328 6.103.445-.42 5.429-5.23a.58.58 0 0 0-.027-.947c-1.076-1.012-2.152-2.06-3.23-3.107l-1.614-1.56-.999-.961zm6.935-6.689 6.427 6.19.194-.342 5.652-5.46a.5.5 0 0 0 .1-.612v-.13l-.1-.085-5.496-5.244a1.5 1.5 0 0 0-.306-.243l-.2-.12zm28.337-.355a.53.53 0 0 0-.206.361.6.6 0 0 0 .19.444l5.212 5.062q.2.217.5.478l.211.193 6.326-6.099-6.732-6.444v.705zm13.366.4 6.332 6.106 6.33-6.107-6.33-6.104zm-27.833 0 6.324 6.098.513-.458.828-.79c1.48-1.407 3.01-2.862 4.519-4.386a.56.56 0 0 0 .247-.45.6.6 0 0 0-.241-.498 510 510 0 0 1-4.996-4.808l-.867-.808zm-6.935-6.738 6.332 6.103 6.33-6.102-6.33-6.125zm13.871 0 6.284 6.09 6.33-6.104-6.284-6.107zm13.869 0 6.332 6.088 6.33-6.106-6.332-6.088zM49.244 8.08a.3.3 0 0 1-.07.075 473 473 0 0 1-5.588 5.397.486.486 0 0 0-.105.598v.13l.1.092 5.427 5.245.48.412 6.318-6.075-6.36-6.196zM29.23 13.943l6.317 6.09.4-.325 5.562-5.36a.51.51 0 0 0 .1-.65v-.13l-.1-.079-5.871-5.63zm7.325-7.024a.504.504 0 0 0-.018.687l5.914 5.688 6.332-6.107-6.116-5.866h-.364z"/></svg>