<svg xmlns="http://www.w3.org/2000/svg" width="15" height="15" fill="none" viewBox="0 0 15 15"><path fill="#030303" d="M13.585 1.217h-1.487V.499a.5.5 0 0 0-.148-.353.51.51 0 0 0-.714 0 .5.5 0 0 0-.149.353v.714H3.912V.499a.5.5 0 0 0-.148-.353.51.51 0 0 0-.714 0A.5.5 0 0 0 2.9.5v.714H1.415c-.374 0-.734.146-.999.407s-.415.615-.416.984v1.252h14.996V2.604a1.4 1.4 0 0 0-.416-.98 1.43 1.43 0 0 0-.995-.407M0 13.609c.001.37.151.723.416.984.265.26.625.407.999.407h12.17c.374 0 .734-.146.999-.407.265-.26.415-.615.416-.984V4.93H0zm7.075-1.74c.045-.47.185-.926.412-1.341a3.5 3.5 0 0 1 .909-1.076c.7-.724.882-.948.882-1.513 0-.429-.112-.764-.606-.764s-.645.357-.668.928H7.11a1.44 1.44 0 0 1 .41-1.174 1.48 1.48 0 0 1 1.177-.436 1.37 1.37 0 0 1 1.129.365 1.33 1.33 0 0 1 .398 1.105c0 .67-.202 1.024-.965 1.762A4.3 4.3 0 0 0 8.14 11.19h2.241l-.125.729H7.075zM4.677 6.966c.37-.05.72-.2 1.01-.432h.616v5.386H5.38V7.532q-.35.08-.707.086z"/></svg>