<svg xmlns="http://www.w3.org/2000/svg" width="15" height="11" fill="none" viewBox="0 0 15 11"><path fill="#030303" d="M14.443 0H.555a.5.5 0 0 0-.213.048.6.6 0 0 0-.18.138.7.7 0 0 0-.12.206A.7.7 0 0 0 0 .634v9.732q0 .126.042.243a.7.7 0 0 0 .12.206.6.6 0 0 0 .18.137Q.445 11 .555 11h13.888a.5.5 0 0 0 .213-.048.6.6 0 0 0 .18-.137.7.7 0 0 0 .121-.206.7.7 0 0 0 .043-.243V.634a.7.7 0 0 0-.043-.243.7.7 0 0 0-.12-.206.6.6 0 0 0-.181-.137.5.5 0 0 0-.213-.048m-.774 2.886-5.83 3.853h-.46L1.552 2.887a.6.6 0 0 1-.169-.17.75.75 0 0 1-.04-.73.6.6 0 0 1 .149-.193.55.55 0 0 1 .202-.112.5.5 0 0 1 .437.067L7.608 5.37l5.478-3.621a.5.5 0 0 1 .437-.067.55.55 0 0 1 .201.112.6.6 0 0 1 .149.193.72.72 0 0 1 .059.5.7.7 0 0 1-.099.23.6.6 0 0 1-.168.17z"/></svg>