<svg xmlns="http://www.w3.org/2000/svg" width="14" height="23" fill="none" viewBox="0 0 14 23"><path fill="#030303" d="M12.374 0H1.628a1.66 1.66 0 0 0-1.15.463A1.56 1.56 0 0 0 0 1.577v19.846c.001.418.173.818.478 1.114a1.66 1.66 0 0 0 1.15.463h10.746a1.66 1.66 0 0 0 1.15-.463c.304-.296.476-.696.476-1.114V1.577c0-.418-.172-.818-.477-1.114A1.66 1.66 0 0 0 12.373 0M3.945 21.185H2.19a.6.6 0 0 1-.414-.167.56.56 0 0 1 0-.802.6.6 0 0 1 .414-.166h1.755c.155 0 .304.06.414.166a.56.56 0 0 1 0 .802.6.6 0 0 1-.414.166m0-2.162H2.19a.6.6 0 0 1-.413-.166.56.56 0 0 1 0-.8.6.6 0 0 1 .413-.167h1.755c.155 0 .304.06.413.166a.56.56 0 0 1 0 .801.6.6 0 0 1-.413.166m0-2.16H2.19a.6.6 0 0 1-.414-.166.56.56 0 0 1 0-.802.6.6 0 0 1 .414-.166h1.755c.155 0 .304.06.414.166a.56.56 0 0 1 0 .802.6.6 0 0 1-.414.166m0-2.161H2.19a.6.6 0 0 1-.414-.166.56.56 0 0 1 0-.802.6.6 0 0 1 .414-.167h1.755c.155 0 .304.06.414.167a.56.56 0 0 1 0 .802.6.6 0 0 1-.414.166m3.932 6.484H6.125a.6.6 0 0 1-.415-.167.56.56 0 0 1 0-.802.6.6 0 0 1 .415-.166h1.752c.156 0 .305.06.415.166a.56.56 0 0 1 0 .802.6.6 0 0 1-.415.167m0-2.162H6.125a.6.6 0 0 1-.414-.166.56.56 0 0 1-.171-.4.55.55 0 0 1 .171-.4.6.6 0 0 1 .414-.166h1.752a.6.6 0 0 1 .414.165.57.57 0 0 1 .171.4.55.55 0 0 1-.171.401.6.6 0 0 1-.414.166m0-2.16H6.125a.6.6 0 0 1-.415-.166.56.56 0 0 1 0-.802.6.6 0 0 1 .415-.166h1.752c.156 0 .305.06.415.166a.56.56 0 0 1 0 .802.6.6 0 0 1-.415.166m0-2.161H6.125a.6.6 0 0 1-.415-.166.57.57 0 0 1-.171-.401.55.55 0 0 1 .171-.401.6.6 0 0 1 .415-.166h1.752a.6.6 0 0 1 .415.166.57.57 0 0 1 .171.4.55.55 0 0 1-.171.402.6.6 0 0 1-.415.166m3.933 6.483h-1.755a.6.6 0 0 1-.414-.166.56.56 0 0 1 0-.802.6.6 0 0 1 .414-.166h1.755c.155 0 .304.06.414.166a.56.56 0 0 1 0 .802.6.6 0 0 1-.414.166m0-2.161h-1.755a.6.6 0 0 1-.413-.166.557.557 0 0 1 0-.8.6.6 0 0 1 .413-.167h1.755c.155 0 .304.06.413.166a.557.557 0 0 1 0 .801.6.6 0 0 1-.413.166m0-2.16h-1.755a.6.6 0 0 1-.414-.166.57.57 0 0 1-.172-.4.55.55 0 0 1 .172-.402.6.6 0 0 1 .414-.166h1.755a.6.6 0 0 1 .414.166.57.57 0 0 1 .172.401.55.55 0 0 1-.172.401.6.6 0 0 1-.414.166m0-2.161h-1.755a.6.6 0 0 1-.414-.166.56.56 0 0 1 0-.802.6.6 0 0 1 .414-.167h1.755c.155 0 .304.06.414.167a.56.56 0 0 1 0 .802.6.6 0 0 1-.414.166m.623-2.442H1.569V1.852h10.86z"/></svg>